<svg width="16" height="16" viewBox="0 0 16 16" fill="none" xmlns="http://www.w3.org/2000/svg">
<g id="icon/expand">
<path id="Vector" d="M2 6C2 4.7593 2 4.13896 2.20099 3.65102C2.47174 2.99372 2.99372 2.47174 3.65102 2.20099C4.13896 2 4.75708 2 5.99333 2H6M14 6C14 4.7593 14 4.13896 13.799 3.65102C13.5283 2.99372 13.0063 2.47174 12.349 2.20099C11.861 2 11.2429 2 10.0067 2H10M2 10C2 11.2407 2 11.861 2.20099 12.349C2.47174 13.0063 2.99372 13.5283 3.65102 13.799C4.13896 14 4.75708 14 5.99333 14H6M14 10C14 11.2407 14 11.861 13.799 12.349C13.5283 13.0063 13.0063 13.5283 12.349 13.799C11.861 14 11.2429 14 10.0067 14H10" stroke="#292556" stroke-linecap="round" stroke-linejoin="round"/>
</g>
</svg>
