<svg width="16" height="16" viewBox="0 0 16 16" fill="none" xmlns="http://www.w3.org/2000/svg">
<g id="icon/vector-pen">
<path id="Vector" d="M7.50065 3.86462L5.34941 4.43074C4.9103 4.5463 4.69074 4.60407 4.52398 4.73887C4.46917 4.78317 4.4192 4.83314 4.37489 4.88795C4.2401 5.05472 4.18232 5.27427 4.06676 5.71339L2.61928 11.2138C2.31142 12.3837 2.1575 12.9686 2.39915 13.34C2.47525 13.457 2.57499 13.5567 2.69194 13.6328C3.06333 13.8744 3.64825 13.7205 4.8181 13.4127L10.3186 11.9652C10.7577 11.8496 10.9772 11.7918 11.144 11.657C11.1988 11.6127 11.2488 11.5628 11.2931 11.508C11.4279 11.3412 11.4856 11.1216 11.6012 10.6825L12.1673 8.53129M7.50065 3.86462L12.1673 8.53129M7.50065 3.86462L8.22786 3.13742C8.75815 2.60712 9.0233 2.34198 9.34422 2.29115C9.44786 2.27473 9.55344 2.27473 9.65709 2.29115C9.978 2.34198 10.2432 2.60712 10.7734 3.13742L12.8945 5.2585C13.4248 5.78879 13.69 6.05394 13.7408 6.37486C13.7572 6.4785 13.7572 6.58408 13.7408 6.68772C13.69 7.00864 13.4248 7.27379 12.8945 7.80408L12.1673 8.53129" stroke="#0D0D0D" stroke-linecap="round" stroke-linejoin="round"/>
<path id="Vector_2" d="M6.58398 9.45094C6.10074 8.96769 6.10074 8.18419 6.58398 7.70094C7.06723 7.21769 7.85074 7.21769 8.33398 7.70094C8.81723 8.18419 8.81723 8.96769 8.33398 9.45094C7.85074 9.93419 7.06723 9.93419 6.58398 9.45094ZM6.58398 9.45094L4.83398 11.2009" stroke="#0D0D0D" stroke-linecap="round" stroke-linejoin="round"/>
</g>
</svg>
